<svg xmlns="http://www.w3.org/2000/svg" xmlns:xlink="http://www.w3.org/1999/xlink" width="58.906" height="58.906" viewBox="0 0 58.906 58.906">
  <defs>
    <linearGradient id="linear-gradient" x1="0.146" y1="0.854" x2="0.854" y2="0.146" gradientUnits="objectBoundingBox">
      <stop offset="0" stop-color="#4589f7"/>
      <stop offset="1" stop-color="#1aafff"/>
    </linearGradient>
  </defs>
  <g id="Grupo_146" data-name="Grupo 146" transform="translate(0 1)">
    <ellipse id="Elipse_62-2" data-name="Elipse 62-2" cx="29.453" cy="29.453" rx="29.453" ry="29.453" transform="translate(0 -1)" fill="url(#linear-gradient)"/>
    <path id="Retângulo_33" data-name="Retângulo 33" d="M330.234,194.435h0a3.832,3.832,0,0,1,3.832,3.832h0v10.474a1.248,1.248,0,0,1-1.249,1.249h-2.584a3.832,3.832,0,0,1-3.832-3.832v-7.89a3.831,3.831,0,0,1,3.832-3.832Z" transform="translate(-311.394 -170.446)" fill="#f4f6f8"/>
    <path id="Caminho_10" data-name="Caminho 10" d="M341.894,198.171c2.644-3.689,3.146-8.437.988-9.827s-4.253-.739-4.253,3.513-6.683,4.574-6.683,11.729V211.7c0,1.651,2.164,3.957,10.568,3.957,2.827,0,3.935-.089,3.935-.089,3.669,0,2.7-3.927,2.7-3.927s1.03.064,1.673-1.346a2.952,2.952,0,0,0-.13-2.639,2.677,2.677,0,0,0,1.415-2.445c0-1.8-1.106-2.227-1.106-2.227,1.227-2.02.433-4.62-2.806-4.82A46.357,46.357,0,0,0,341.894,198.171Z" transform="translate(-307.607 -176.056)" fill="#f4f6f8"/>
  </g>
</svg>
