<svg xmlns="http://www.w3.org/2000/svg" width="30.916" height="27.052" viewBox="0 0 30.916 27.052">
  <path id="camera-alt-light" d="M15.458,54.7A7.246,7.246,0,1,1,22.7,47.458,7.252,7.252,0,0,1,15.458,54.7Zm0-12.56a5.314,5.314,0,1,0,5.314,5.314A5.322,5.322,0,0,0,15.458,42.144Zm-1.932,5.314a1.938,1.938,0,0,1,1.932-1.932.966.966,0,1,0,0-1.932,3.868,3.868,0,0,0-3.865,3.864.966.966,0,0,0,1.932,0Zm6.056-13.526a.49.49,0,0,1,.453.314L21.369,37.8h6.648a.969.969,0,0,1,.966.966v17.39a.969.969,0,0,1-.966.966H2.9a.969.969,0,0,1-.966-.966V38.763A.969.969,0,0,1,2.9,37.8H9.553l1.214-3.237a.968.968,0,0,1,.906-.628h7.91m0-1.932h-7.91a2.894,2.894,0,0,0-2.711,1.878l-.749,1.987H2.9a2.9,2.9,0,0,0-2.9,2.9v17.39a2.9,2.9,0,0,0,2.9,2.9H28.018a2.9,2.9,0,0,0,2.9-2.9V38.763a2.9,2.9,0,0,0-2.9-2.9H22.7L21.84,33.57A2.4,2.4,0,0,0,19.582,32Z" transform="translate(0 -32)" fill="#fff"/>
</svg>
