<svg xmlns="http://www.w3.org/2000/svg" width="19.143" height="18.18" viewBox="0 0 19.143 18.18">
  <path id="Caminho_11" data-name="Caminho 11" d="M1104.8,578.28c-5.286,0-9.571,3.7-9.571,8.254,0,.145,0,.284.011.429.284,8.2,8.795,9.341,11.151,9.5a.389.389,0,0,0,.391-.53l-.155-.423a.719.719,0,0,1,.525-.959c4.151-.905,7.22-4.146,7.22-8.013C1114.373,581.976,1110.088,578.28,1104.8,578.28Zm3.106,10.889a1.064,1.064,0,0,1-.755.311h-4.7a1.07,1.07,0,0,1-1.071-1.066,1.047,1.047,0,0,1,.316-.755,1.065,1.065,0,0,1,.755-.311h4.7a1.068,1.068,0,0,1,.755,1.821Zm0-3.2a1.064,1.064,0,0,1-.755.311h-4.7a1.07,1.07,0,0,1-1.071-1.066,1.079,1.079,0,0,1,1.071-1.071h4.7a1.072,1.072,0,0,1,.755,1.826Z" transform="translate(-1095.23 -578.28)" fill="#f4f6f8"/>
</svg>
