<svg xmlns="http://www.w3.org/2000/svg" width="224.5" height="43.463" viewBox="0 0 224.5 43.463">
  <g id="Grupo_79" data-name="Grupo 79" transform="translate(-102.3 -101.83)">
    <path id="Caminho_13" data-name="Caminho 13" d="M119.865,108.636c-2.643,0-3.407,1.172-3.407,3.758v4.289h7.05l-.707,6.93h-6.341v21.03H108v-21.03h-5.7v-6.93H108v-4.171c0-6.99,2.818-10.682,10.682-10.682a40.033,40.033,0,0,1,4.93.293v6.522Z" transform="translate(0 0)" fill="#4589f7"/>
    <path id="Caminho_14" data-name="Caminho 14" d="M181.87,167.575c0-7.812,3.7-13.7,11.455-13.7a8.313,8.313,0,0,1,8.047,4.875v-4.278h8.1v27.96h-8.1v-4.229c-1.175,2.7-3.818,4.818-8.047,4.818-7.754,0-11.455-5.875-11.455-13.7Zm8.458,1.882c0,4.169,1.526,6.93,5.462,6.93,3.468,0,5.229-2.525,5.229-6.519V167.06c0-3.993-1.761-6.519-5.229-6.519-3.936,0-5.462,2.761-5.462,6.93Z" transform="translate(-57.776 -37.794)" fill="#4589f7"/>
    <path id="Caminho_15" data-name="Caminho 15" d="M308.691,153.91c3.287,0,6.4.707,8.1,1.879l-1.879,5.993a13.314,13.314,0,0,0-5.64-1.293c-4.582,0-6.574,2.643-6.574,7.168V169.3c0,4.525,2,7.168,6.574,7.168a13.314,13.314,0,0,0,5.64-1.293l1.879,5.99c-1.7,1.175-4.815,1.882-8.1,1.882-9.929,0-14.451-5.347-14.451-13.922v-1.293C294.24,159.257,298.762,153.91,308.691,153.91Z" transform="translate(-139.367 -37.816)" fill="#4589f7"/>
    <path id="Caminho_16" data-name="Caminho 16" d="M380.66,169.612v-2.465c0-7.929,4.522-13.147,13.747-13.147,8.694,0,12.512,5.286,12.512,13.04V171.5h-17.8c.178,3.818,1.882,5.522,6.574,5.522a24.023,24.023,0,0,0,8.989-1.7l1.548,5.793c-2.232,1.178-6.815,2.057-10.866,2.057C384.653,183.17,380.66,177.829,380.66,169.612Zm8.458-3.643H399.34v-.7c0-3.054-1.233-5.478-4.93-5.478-3.821,0-5.292,2.413-5.292,6.171Z" transform="translate(-202.117 -37.881)" fill="#4589f7"/>
    <path id="Caminho_17" data-name="Caminho 17" d="M517.221,131.669c0,7.812-3.758,13.7-11.5,13.7-4.229,0-7.165-2.115-8.34-4.818v4.229H489.39V102.767l8.458-.767v18.68a8.443,8.443,0,0,1,7.872-4.465c7.754,0,11.5,5.875,11.5,13.7Zm-8.458-1.939c0-3.936-1.526-6.872-5.579-6.872-3.468,0-5.346,2.465-5.346,6.461v2.936c0,3.993,1.879,6.461,5.346,6.461,4.054,0,5.579-2.936,5.579-6.872Z" transform="translate(-281.066 -0.124)" fill="#4589f7"/>
    <path id="Caminho_18" data-name="Caminho 18" d="M601.33,169.183v-1.408c0-8.05,4.582-13.865,13.922-13.865s13.925,5.815,13.925,13.865v1.408c0,8.047-4.583,13.865-13.922,13.865S601.33,177.23,601.33,169.183Zm19.387-2c0-3.7-1.528-6.637-5.478-6.637s-5.464,2.936-5.464,6.637v2.586c0,3.7,1.528,6.637,5.464,6.637s5.478-2.936,5.478-6.637Z" transform="translate(-362.345 -37.816)" fill="#4589f7"/>
    <path id="Caminho_19" data-name="Caminho 19" d="M713.27,169.183v-1.408c0-8.05,4.582-13.865,13.922-13.865s13.922,5.815,13.922,13.865v1.408c0,8.047-4.582,13.865-13.922,13.865S713.27,177.23,713.27,169.183Zm19.387-2c0-3.7-1.528-6.637-5.464-6.637s-5.462,2.936-5.462,6.637v2.586c0,3.7,1.526,6.637,5.462,6.637s5.464-2.936,5.464-6.637Z" transform="translate(-443.625 -37.816)" fill="#4589f7"/>
    <path id="Caminho_20" data-name="Caminho 20" d="M834.961,130.141l8.34-13.334h8.987l-8.751,13.8,9.1,14.155h-8.987l-8.694-13.7v13.7H826.5v-42l8.461-.767Z" transform="translate(-525.841 -0.124)" fill="#4589f7"/>
  </g>
</svg>
