<svg xmlns="http://www.w3.org/2000/svg" width="25.649" height="27.454" viewBox="0 0 25.649 27.454">
  <path id="Caminho_7" data-name="Caminho 7" d="M934.585,396.685v4.343c0,3.665.411,7.394-6.038,7.9a1.449,1.449,0,0,1-1.57-1.435v-6.476a3.189,3.189,0,0,0-3.192-3.192h-3.757a3.192,3.192,0,0,0-3.192,3.192v6.517a1.447,1.447,0,0,1-1.541,1.437c-7.407-.439-6.3-4.17-6.3-7.94v-4.343c0-5.164,1.541-6.42,4.27-8.709L920.4,382a2.248,2.248,0,0,1,2.773,0l7.132,5.98C933.044,390.265,934.585,390.948,934.585,396.685Z" transform="translate(-908.941 -381.517)" fill="#2d88ff"/>
</svg>
