<svg xmlns="http://www.w3.org/2000/svg" width="25.969" height="26.43" viewBox="0 0 25.969 26.43">
  <path id="Caminho_5" data-name="Caminho 5" d="M1113.555,527.71a13,13,0,0,0-8.744,22.6v3.826l4.364-1.214a12.988,12.988,0,1,0,4.379-25.216Zm7.868,10.664-4.256,5.824a1.963,1.963,0,0,1-2.735.43l-.061-.046-.261-.2-3.1-2.428-4.472,3.55a1.032,1.032,0,0,1-1.506-1.368l4.3-6.654a1.959,1.959,0,0,1,2.7-.584l.154.108.277.215,3.15,2.474,4.118-3.012a1.207,1.207,0,0,1,1.69.261A1.248,1.248,0,0,1,1121.422,538.374Z" transform="translate(-1100.57 -527.71)" fill="#f4f6f8"/>
</svg>
