<svg xmlns="http://www.w3.org/2000/svg" width="26.667" height="28.767" viewBox="0 0 26.667 28.767">
  <g id="Grupo_3" data-name="Grupo 3" transform="translate(0 6.915) rotate(-19)">
    <path id="Caminho_3" data-name="Caminho 3" d="M21.194,16.883A4.082,4.082,0,0,1,17.1,20.227H3.933A3.943,3.943,0,0,1,.648,14.119a9.615,9.615,0,0,0,1.683-5.59,8.755,8.755,0,0,1,.158-1.9A8.288,8.288,0,0,1,18.9,8.285v.045a9.252,9.252,0,0,0,1.576,5.62A3.927,3.927,0,0,1,21.194,16.883Z" transform="translate(0 0)" fill="#f4f6f8"/>
    <path id="Caminho_4" data-name="Caminho 4" d="M8.183,0A4.291,4.291,0,0,1,4.106,2.949,4.327,4.327,0,0,1,0,0Z" transform="translate(4.927 21.858)" fill="#f4f6f8"/>
  </g>
</svg>
