<svg xmlns="http://www.w3.org/2000/svg" width="23.875" height="23.875" viewBox="0 0 23.875 23.875">
  <path id="Caminho_8" data-name="Caminho 8" d="M1064.719,398.115h-2a6.485,6.485,0,0,0-.318-.806l1.454-1.442a1.689,1.689,0,0,0,0-2.37l-1.808-1.8a1.667,1.667,0,0,0-2.37,0l-1.405,1.405c-.256-.122-.525-.232-.794-.33v-2.053a1.669,1.669,0,0,0-1.674-1.674h-2.541a1.669,1.669,0,0,0-1.674,1.674v2a6.506,6.506,0,0,0-.806.318l-1.442-1.454a1.689,1.689,0,0,0-2.37,0l-1.8,1.808a1.667,1.667,0,0,0,0,2.37l1.405,1.405c-.122.257-.232.525-.33.794h-2.053a1.669,1.669,0,0,0-1.674,1.674v2.541a1.679,1.679,0,0,0,1.674,1.686h2a6.356,6.356,0,0,0,.318.794l-1.454,1.442a1.689,1.689,0,0,0,0,2.37l1.808,1.808a1.689,1.689,0,0,0,2.37,0l1.405-1.417c.257.122.525.232.794.33v2.053a1.669,1.669,0,0,0,1.674,1.674h2.541a1.679,1.679,0,0,0,1.686-1.674v-1.992c.269-.1.526-.208.794-.33l1.442,1.454a1.689,1.689,0,0,0,2.37,0l1.808-1.808a1.674,1.674,0,0,0,0-2.358l-1.417-1.417c.122-.257.232-.525.33-.794h2.053a1.669,1.669,0,0,0,1.674-1.674v-2.541A1.669,1.669,0,0,0,1064.719,398.115Zm-10.264,6.952a4.081,4.081,0,1,1,4.081-4.081A4.073,4.073,0,0,1,1054.455,405.067Z" transform="translate(-1042.518 -389.049)" fill="#f4f6f8"/>
</svg>
