<svg xmlns="http://www.w3.org/2000/svg" width="21.089" height="20" viewBox="0 0 21.089 20">
  <g id="Grupo_10" data-name="Grupo 10" transform="translate(-1035.384 -576.658)">
    <path id="Retângulo_33" data-name="Retângulo 33" d="M2.74,0h0A2.74,2.74,0,0,1,5.48,2.74v7.486a.893.893,0,0,1-.893.893H2.74A2.74,2.74,0,0,1,0,8.379V2.74A2.74,2.74,0,0,1,2.74,0Z" transform="translate(1035.384 584.778)" fill="#f4f6f8"/>
    <path id="Caminho_10" data-name="Caminho 10" d="M1054.357,584.154c1.891-2.638,2.249-6.032.706-7.025s-3.04-.528-3.04,2.511-4.778,3.271-4.778,8.385v5.8c0,1.18,1.547,2.829,7.555,2.829,2.021,0,2.813-.064,2.813-.064,2.623,0,1.933-2.807,1.933-2.807s.736.046,1.2-.966a2.106,2.106,0,0,0-.092-1.887,1.914,1.914,0,0,0,1.012-1.749c0-1.289-.791-1.591-.791-1.591.877-1.441.309-3.3-2.005-3.446A33.206,33.206,0,0,0,1054.357,584.154Z" transform="translate(-5.19)" fill="#f4f6f8"/>
  </g>
</svg>
