<svg xmlns="http://www.w3.org/2000/svg" xmlns:xlink="http://www.w3.org/1999/xlink" width="42.124" height="44.564" viewBox="0 0 42.124 44.564">
  <defs>
    <linearGradient id="linear-gradient" x1="0.146" y1="0.854" x2="0.854" y2="0.146" gradientUnits="objectBoundingBox">
      <stop offset="0" stop-color="#ff3f68"/>
      <stop offset="0.124" stop-color="#ff406f"/>
      <stop offset="0.315" stop-color="#ff4385"/>
      <stop offset="0.549" stop-color="#ff47a8"/>
      <stop offset="0.815" stop-color="#ff4ed8"/>
      <stop offset="1" stop-color="#ff54ff"/>
    </linearGradient>
    <linearGradient id="linear-gradient-2" y1="0.5" x2="1" y2="0.5" gradientUnits="objectBoundingBox">
      <stop offset="0" stop-color="#ececf6"/>
      <stop offset="0.974" stop-color="#fff"/>
    </linearGradient>
    <filter id="Caminho_21" x="1.401" y="7.172" width="39.335" height="37.392" filterUnits="userSpaceOnUse">
      <feOffset dy="3" input="SourceAlpha"/>
      <feGaussianBlur stdDeviation="3" result="blur"/>
      <feFlood flood-opacity="0.302"/>
      <feComposite operator="in" in2="blur"/>
      <feComposite in="SourceGraphic"/>
    </filter>
  </defs>
  <g id="Grupo_252" data-name="Grupo 252" transform="translate(-337.075 -741.377)">
    <g id="Grupo_119" data-name="Grupo 119" transform="translate(337.075 741.377)">
      <ellipse id="Elipse_62-2" data-name="Elipse 62-2" cx="21.062" cy="21.062" rx="21.062" ry="21.062" fill="url(#linear-gradient)"/>
    </g>
    <g transform="matrix(1, 0, 0, 1, 337.08, 741.38)" filter="url(#Caminho_21)">
      <path id="Caminho_21-2" data-name="Caminho 21" d="M97.136,109.14a39.5,39.5,0,0,1-6.667-5.528,16.788,16.788,0,0,1-3.312-4.849,7.941,7.941,0,0,1-.675-3.566,5.553,5.553,0,0,1,.917-2.755,5.939,5.939,0,0,1,2.287-1.992,6.606,6.606,0,0,1,2.953-.7,5.95,5.95,0,0,1,2.407.491,5.4,5.4,0,0,1,2.021,1.53l.074.09.075-.09a5.405,5.405,0,0,1,2.02-1.53,5.951,5.951,0,0,1,2.407-.491,6.6,6.6,0,0,1,2.953.7,5.943,5.943,0,0,1,2.287,1.992A5.549,5.549,0,0,1,107.8,95.2a7.941,7.941,0,0,1-.675,3.566,16.784,16.784,0,0,1-3.311,4.849A39.477,39.477,0,0,1,97.136,109.14Z" transform="translate(-76.07 -76.58)" fill="url(#linear-gradient-2)"/>
    </g>
  </g>
</svg>
